<svg height="512" viewBox="0 0 64 64" width="512" xmlns="http://www.w3.org/2000/svg"><g id="Layer_20" data-name="Layer 20"><path d="m23 51a33.3 33.3 0 0 0 -11.6-7.538l-6.4-2.462-3-19 8.14 8.14a2.641 2.641 0 0 0 .684 2.758 2.967 2.967 0 0 0 2.154 1.102 3 3 0 0 0 3.022-3.022 2.967 2.967 0 0 0 -1.1-2.154 2.641 2.641 0 0 0 -2.758-.684l-8.142-8.14 19 3 2.462 6.4a33.3 33.3 0 0 0 7.538 11.6z" fill="#c8cded"/><path d="m4.562 24.562 2.438 15.438 6.4 2.462a33.3 33.3 0 0 1 11.087 7.051l8.513-8.513a33.3 33.3 0 0 1 -7.538-11.6l-2.462-6.4-15.438-2.438 6.578 6.578a2.641 2.641 0 0 1 2.758.684 2.884 2.884 0 0 1 -1.656 5.151 2.98 2.98 0 0 1 -2.264 1.025 2.967 2.967 0 0 1 -2.154-1.1 2.641 2.641 0 0 1 -.684-2.758z" fill="#e2e7f6"/><path d="m27.929 47.343h14.142v11.314h-14.142z" fill="#5e87ca" transform="matrix(.707 -.707 .707 .707 -27.225 40.272)"/><path d="m28.5 51.5 3.379 3.379a3 3 0 0 0 4.242 0l5.379-5.379-5.5-5.5z" fill="#78a0d4"/><circle cx="45" cy="19" fill="#e2e7f6" r="17"/><path d="m59 18a16.994 16.994 0 0 0 -10.122-15.538 16.988 16.988 0 0 0 -10.756 32.076 16.948 16.948 0 0 0 20.878-16.538z" fill="#f2f2f2"/><path d="m56 16h-8v-8h-6v8h-8v6h8v8h6v-8h8z" fill="#c8cded"/></g></svg>