<?xml version="1.0" encoding="iso-8859-1"?>
<!-- Generator: Adobe Illustrator 19.0.0, SVG Export Plug-In . SVG Version: 6.00 Build 0)  -->
<svg version="1.1" id="Capa_1" xmlns="http://www.w3.org/2000/svg" xmlns:xlink="http://www.w3.org/1999/xlink" x="0px" y="0px"
	 viewBox="0 0 368 368" style="enable-background:new 0 0 368 368;" xml:space="preserve">
<path style="fill:#CCE4FF;" d="M232,296v48c0,8.8-7.2,16-16,16H24c-8.8,0-16-7.2-16-16V88c0-8.8,7.2-16,16-16h112v96h96V296z"/>
<path style="fill:#007AFF;" d="M293.944,2.648C292.432,0.96,290.272,0,288,0H152c-13.232,0-24,10.768-24,24v40H24
	C10.768,64,0,74.768,0,88v256c0,13.232,10.768,24,24,24h192c13.232,0,24-10.768,24-24v-40h104c13.232,0,24-10.768,24-24V104V88
	c0-1.976-0.728-3.88-2.056-5.352L293.944,2.648z M280,16h4.44L352,91.072V96h-72V16z M224,160h-80V80h4.688L224,155.312V160z
	 M224,344c0,4.408-3.592,8-8,8H24c-4.408,0-8-3.592-8-8V88c0-4.408,3.592-8,8-8h104v88c0,4.416,3.584,8,8,8h88V344z M344,288H240
	V152c0-2.12-0.84-4.16-2.344-5.656l-80-80C156.16,64.84,154.12,64,152,64h-8V24c0-4.408,3.592-8,8-8h112v88c0,4.416,3.584,8,8,8h80
	v168C352,284.408,348.408,288,344,288z"/>
<g>
</g>
<g>
</g>
<g>
</g>
<g>
</g>
<g>
</g>
<g>
</g>
<g>
</g>
<g>
</g>
<g>
</g>
<g>
</g>
<g>
</g>
<g>
</g>
<g>
</g>
<g>
</g>
<g>
</g>
</svg>
